<svg
  xmlns="http://www.w3.org/2000/svg"
  xmlns:xlink="http://www.w3.org/1999/xlink"
  width="1000"
  zoomAndPan="magnify"
  viewBox="0 0 750 749.999995"
  height="1000"
  preserveAspectRatio="xMidYMid meet"
  version="1.0">
  <defs>
    <clipPath id="43d211e3d1">
      <path
        d="M 372 168.601562 L 379 168.601562 L 379 338 L 372 338 Z M 372 168.601562 "
        clip-rule="nonzero" />
    </clipPath>
    <clipPath id="510438953b">
      <path
        d="M 62.273438 428 L 229 428 L 229 463 L 62.273438 463 Z M 62.273438 428 "
        clip-rule="nonzero" />
    </clipPath>
    <clipPath id="a857cfab45">
      <path
        d="M 521 428 L 687.773438 428 L 687.773438 463 L 521 463 Z M 521 428 "
        clip-rule="nonzero" />
    </clipPath>
  </defs>
  <g clip-path="url(#43d211e3d1)">
    <path
      fill="#ffffff"
      d="M 375.097656 337.542969 C 374.703125 337.542969 374.324219 337.46875 373.957031 337.316406 C 373.59375 337.164062 373.273438 336.949219 372.992188 336.671875 C 372.714844 336.394531 372.5 336.070312 372.347656 335.707031 C 372.195312 335.34375 372.121094 334.964844 372.121094 334.570312 L 372.121094 171.726562 C 372.121094 171.332031 372.195312 170.953125 372.347656 170.585938 C 372.5 170.222656 372.714844 169.902344 372.992188 169.625 C 373.273438 169.34375 373.59375 169.128906 373.957031 168.980469 C 374.324219 168.828125 374.703125 168.753906 375.097656 168.753906 C 375.492188 168.753906 375.871094 168.828125 376.234375 168.980469 C 376.601562 169.128906 376.921875 169.34375 377.199219 169.625 C 377.480469 169.902344 377.695312 170.222656 377.84375 170.585938 C 377.996094 170.953125 378.070312 171.332031 378.070312 171.726562 L 378.070312 334.570312 C 378.070312 334.964844 377.996094 335.34375 377.84375 335.707031 C 377.695312 336.070312 377.480469 336.394531 377.199219 336.671875 C 376.921875 336.949219 376.601562 337.164062 376.234375 337.316406 C 375.871094 337.46875 375.492188 337.542969 375.097656 337.542969 Z M 375.097656 337.542969 "
      fill-opacity="1"
      fill-rule="nonzero" />
  </g>
  <path
    fill="#f9b44e"
    d="M 505.253906 488.875 C 504.859375 488.875 504.480469 488.800781 504.117188 488.648438 C 503.75 488.496094 503.429688 488.28125 503.152344 488.003906 C 502.871094 487.726562 502.65625 487.402344 502.503906 487.039062 C 502.355469 486.675781 502.277344 486.296875 502.277344 485.902344 C 502.277344 415.828125 445.226562 358.820312 375.097656 358.820312 C 304.96875 358.820312 247.914062 415.828125 247.914062 485.902344 C 247.914062 486.296875 247.839844 486.675781 247.6875 487.039062 C 247.535156 487.402344 247.320312 487.726562 247.042969 488.003906 C 246.765625 488.28125 246.441406 488.496094 246.078125 488.648438 C 245.714844 488.800781 245.332031 488.875 244.9375 488.875 C 244.542969 488.875 244.164062 488.800781 243.800781 488.648438 C 243.4375 488.496094 243.113281 488.28125 242.835938 488.003906 C 242.554688 487.726562 242.339844 487.402344 242.191406 487.039062 C 242.039062 486.675781 241.964844 486.296875 241.964844 485.902344 C 241.964844 412.550781 301.6875 352.875 375.097656 352.875 C 448.503906 352.875 508.230469 412.550781 508.230469 485.902344 C 508.230469 486.296875 508.152344 486.675781 508.003906 487.039062 C 507.851562 487.402344 507.636719 487.726562 507.359375 488.003906 C 507.078125 488.28125 506.757812 488.496094 506.394531 488.648438 C 506.027344 488.800781 505.648438 488.875 505.253906 488.875 Z M 505.253906 488.875 "
    fill-opacity="1"
    fill-rule="nonzero" />
  <path
    fill="#f9924e"
    d="M 470.378906 488.875 C 469.984375 488.875 469.605469 488.800781 469.242188 488.648438 C 468.875 488.496094 468.554688 488.28125 468.277344 488.003906 C 467.996094 487.726562 467.78125 487.402344 467.628906 487.039062 C 467.480469 486.675781 467.40625 486.296875 467.40625 485.902344 C 467.402344 484.394531 467.367188 482.886719 467.292969 481.378906 C 467.214844 479.871094 467.105469 478.367188 466.957031 476.863281 C 466.808594 475.363281 466.621094 473.867188 466.398438 472.375 C 466.175781 470.878906 465.917969 469.394531 465.621094 467.914062 C 465.328125 466.433594 464.996094 464.960938 464.628906 463.5 C 464.261719 462.035156 463.859375 460.582031 463.417969 459.136719 C 462.980469 457.695312 462.507812 456.261719 461.996094 454.839844 C 461.488281 453.421875 460.945312 452.011719 460.363281 450.617188 C 459.785156 449.226562 459.175781 447.847656 458.527344 446.480469 C 457.882812 445.117188 457.203125 443.769531 456.492188 442.441406 C 455.777344 441.109375 455.035156 439.796875 454.257812 438.503906 C 453.480469 437.210938 452.671875 435.933594 451.832031 434.679688 C 450.992188 433.425781 450.121094 432.191406 449.222656 430.980469 C 448.324219 429.769531 447.394531 428.582031 446.433594 427.414062 C 445.476562 426.246094 444.492188 425.105469 443.476562 423.988281 C 442.460938 422.871094 441.421875 421.777344 440.351562 420.710938 C 439.285156 419.644531 438.191406 418.605469 437.070312 417.589844 C 435.953125 416.578125 434.808594 415.59375 433.640625 414.636719 C 432.472656 413.679688 431.28125 412.75 430.070312 411.851562 C 428.855469 410.953125 427.621094 410.085938 426.367188 409.246094 C 425.109375 408.410156 423.835938 407.601562 422.539062 406.828125 C 421.242188 406.050781 419.929688 405.308594 418.597656 404.597656 C 417.265625 403.886719 415.917969 403.207031 414.550781 402.5625 C 413.1875 401.917969 411.804688 401.304688 410.410156 400.730469 C 409.015625 400.152344 407.605469 399.609375 406.183594 399.101562 C 404.761719 398.59375 403.328125 398.117188 401.882812 397.679688 C 400.4375 397.242188 398.984375 396.839844 397.519531 396.472656 C 396.054688 396.109375 394.582031 395.777344 393.097656 395.484375 C 391.617188 395.1875 390.128906 394.929688 388.636719 394.710938 C 387.144531 394.488281 385.644531 394.304688 384.140625 394.15625 C 382.636719 394.007812 381.132812 393.898438 379.625 393.824219 C 378.117188 393.75 376.605469 393.710938 375.097656 393.710938 C 373.585938 393.710938 372.078125 393.75 370.570312 393.824219 C 369.058594 393.898438 367.554688 394.007812 366.050781 394.15625 C 364.546875 394.304688 363.050781 394.488281 361.554688 394.710938 C 360.0625 394.929688 358.574219 395.1875 357.09375 395.484375 C 355.613281 395.777344 354.140625 396.109375 352.675781 396.472656 C 351.210938 396.839844 349.753906 397.242188 348.308594 397.679688 C 346.863281 398.117188 345.429688 398.59375 344.007812 399.101562 C 342.585938 399.609375 341.179688 400.152344 339.78125 400.730469 C 338.386719 401.304688 337.007812 401.917969 335.640625 402.5625 C 334.277344 403.207031 332.925781 403.886719 331.59375 404.597656 C 330.261719 405.308594 328.949219 406.050781 327.652344 406.828125 C 326.359375 407.601562 325.082031 408.410156 323.828125 409.246094 C 322.570312 410.085938 321.335938 410.953125 320.125 411.851562 C 318.910156 412.75 317.71875 413.679688 316.550781 414.636719 C 315.386719 415.59375 314.242188 416.578125 313.121094 417.589844 C 312.003906 418.605469 310.910156 419.644531 309.839844 420.710938 C 308.773438 421.777344 307.730469 422.871094 306.71875 423.988281 C 305.703125 425.105469 304.714844 426.246094 303.757812 427.414062 C 302.800781 428.582031 301.871094 429.769531 300.96875 430.980469 C 300.070312 432.191406 299.199219 433.425781 298.359375 434.679688 C 297.523438 435.933594 296.714844 437.210938 295.9375 438.503906 C 295.160156 439.796875 294.414062 441.109375 293.703125 442.441406 C 292.992188 443.769531 292.3125 445.117188 291.664062 446.480469 C 291.019531 447.847656 290.40625 449.226562 289.828125 450.621094 C 289.25 452.011719 288.707031 453.421875 288.195312 454.839844 C 287.6875 456.261719 287.214844 457.695312 286.773438 459.136719 C 286.335938 460.582031 285.933594 462.035156 285.566406 463.5 C 285.195312 464.960938 284.867188 466.433594 284.570312 467.914062 C 284.273438 469.394531 284.015625 470.878906 283.792969 472.375 C 283.570312 473.867188 283.386719 475.363281 283.238281 476.863281 C 283.089844 478.367188 282.976562 479.871094 282.902344 481.378906 C 282.828125 482.886719 282.789062 484.394531 282.789062 485.902344 C 282.789062 486.296875 282.714844 486.675781 282.5625 487.039062 C 282.410156 487.402344 282.195312 487.726562 281.917969 488.003906 C 281.636719 488.28125 281.316406 488.496094 280.953125 488.648438 C 280.589844 488.800781 280.207031 488.875 279.8125 488.875 C 279.417969 488.875 279.039062 488.800781 278.675781 488.648438 C 278.3125 488.496094 277.988281 488.28125 277.710938 488.003906 C 277.429688 487.726562 277.214844 487.402344 277.066406 487.039062 C 276.914062 486.675781 276.839844 486.296875 276.839844 485.902344 C 276.839844 431.769531 320.914062 387.722656 375.097656 387.722656 C 429.28125 387.722656 473.355469 431.769531 473.355469 485.902344 C 473.355469 486.296875 473.277344 486.675781 473.128906 487.039062 C 472.976562 487.402344 472.761719 487.726562 472.484375 488.003906 C 472.203125 488.28125 471.882812 488.496094 471.519531 488.648438 C 471.152344 488.800781 470.773438 488.875 470.378906 488.875 Z M 470.378906 488.875 "
    fill-opacity="1"
    fill-rule="nonzero" />
  <path
    fill="#fade7f"
    d="M 348.789062 339.847656 C 348.441406 339.84375 348.101562 339.785156 347.773438 339.664062 C 347.445312 339.542969 347.148438 339.371094 346.882812 339.148438 C 346.613281 338.921875 346.394531 338.660156 346.21875 338.355469 C 346.042969 338.054688 345.925781 337.730469 345.867188 337.386719 L 327.980469 236.003906 C 327.910156 235.613281 327.917969 235.226562 328.003906 234.84375 C 328.089844 234.457031 328.246094 234.105469 328.472656 233.78125 C 328.699219 233.457031 328.976562 233.191406 329.3125 232.980469 C 329.644531 232.765625 330.003906 232.625 330.394531 232.558594 C 330.78125 232.488281 331.167969 232.496094 331.554688 232.582031 C 331.9375 232.667969 332.292969 232.824219 332.617188 233.050781 C 332.941406 233.277344 333.207031 233.554688 333.417969 233.886719 C 333.632812 234.222656 333.773438 234.582031 333.839844 234.96875 L 351.726562 336.351562 C 351.796875 336.742188 351.785156 337.128906 351.703125 337.511719 C 351.617188 337.898438 351.460938 338.25 351.234375 338.574219 C 351.003906 338.898438 350.726562 339.164062 350.394531 339.375 C 350.058594 339.585938 349.699219 339.726562 349.3125 339.792969 C 349.140625 339.832031 348.964844 339.847656 348.789062 339.847656 Z M 348.789062 339.847656 "
    fill-opacity="1"
    fill-rule="nonzero" />
  <path
    fill="#fade7f"
    d="M 299.375 357.816406 C 298.84375 357.816406 298.347656 357.683594 297.886719 357.417969 C 297.421875 357.152344 297.058594 356.789062 296.792969 356.328125 L 245.28125 267.148438 C 245.085938 266.808594 244.960938 266.441406 244.910156 266.050781 C 244.855469 265.660156 244.882812 265.273438 244.984375 264.894531 C 245.085938 264.511719 245.257812 264.164062 245.496094 263.851562 C 245.738281 263.539062 246.027344 263.285156 246.371094 263.085938 C 246.710938 262.890625 247.078125 262.765625 247.46875 262.714844 C 247.863281 262.664062 248.246094 262.6875 248.628906 262.789062 C 249.011719 262.894531 249.355469 263.0625 249.671875 263.304688 C 249.984375 263.542969 250.238281 263.835938 250.433594 264.175781 L 301.949219 353.355469 C 302.078125 353.582031 302.175781 353.820312 302.246094 354.074219 C 302.3125 354.324219 302.347656 354.582031 302.347656 354.84375 C 302.347656 355.105469 302.3125 355.359375 302.246094 355.613281 C 302.179688 355.863281 302.078125 356.101562 301.949219 356.328125 C 301.820312 356.554688 301.660156 356.757812 301.476562 356.945312 C 301.292969 357.128906 301.085938 357.285156 300.859375 357.417969 C 300.636719 357.546875 300.394531 357.648438 300.144531 357.714844 C 299.890625 357.78125 299.636719 357.816406 299.375 357.816406 Z M 299.375 357.816406 "
    fill-opacity="1"
    fill-rule="nonzero" />
  <path
    fill="#fade7f"
    d="M 259.070312 391.601562 C 258.347656 391.601562 257.710938 391.367188 257.160156 390.902344 L 178.238281 324.761719 C 177.933594 324.507812 177.6875 324.207031 177.503906 323.855469 C 177.316406 323.503906 177.207031 323.132812 177.171875 322.738281 C 177.136719 322.34375 177.175781 321.957031 177.292969 321.582031 C 177.414062 321.203125 177.597656 320.863281 177.855469 320.558594 C 178.109375 320.253906 178.410156 320.011719 178.765625 319.828125 C 179.117188 319.648438 179.488281 319.539062 179.882812 319.503906 C 180.277344 319.472656 180.664062 319.515625 181.042969 319.636719 C 181.421875 319.757812 181.761719 319.949219 182.0625 320.203125 L 260.980469 386.347656 C 261.460938 386.75 261.777344 387.25 261.941406 387.855469 C 262.101562 388.457031 262.074219 389.050781 261.863281 389.636719 C 261.648438 390.222656 261.285156 390.695312 260.773438 391.054688 C 260.261719 391.414062 259.695312 391.59375 259.070312 391.59375 Z M 259.070312 391.601562 "
    fill-opacity="1"
    fill-rule="nonzero" />
  <path
    fill="#fade7f"
    d="M 232.777344 437.121094 C 232.429688 437.121094 232.089844 437.058594 231.761719 436.941406 L 134.945312 401.730469 C 134.574219 401.59375 134.242188 401.394531 133.953125 401.128906 C 133.660156 400.863281 133.433594 400.550781 133.265625 400.191406 C 133.097656 399.835938 133.007812 399.457031 132.988281 399.066406 C 132.972656 398.671875 133.03125 398.289062 133.167969 397.917969 C 133.300781 397.546875 133.503906 397.214844 133.769531 396.925781 C 134.035156 396.636719 134.347656 396.40625 134.707031 396.238281 C 135.066406 396.074219 135.441406 395.980469 135.835938 395.964844 C 136.230469 395.949219 136.613281 396.007812 136.984375 396.140625 L 233.78125 431.332031 C 234.113281 431.449219 234.410156 431.621094 234.679688 431.847656 C 234.945312 432.070312 235.167969 432.335938 235.34375 432.636719 C 235.519531 432.941406 235.636719 433.265625 235.699219 433.609375 C 235.757812 433.953125 235.757812 434.296875 235.699219 434.640625 C 235.636719 434.988281 235.519531 435.308594 235.34375 435.613281 C 235.167969 435.914062 234.945312 436.179688 234.679688 436.402344 C 234.410156 436.628906 234.113281 436.800781 233.78125 436.917969 C 233.453125 437.039062 233.113281 437.097656 232.765625 437.097656 Z M 232.777344 437.121094 "
    fill-opacity="1"
    fill-rule="nonzero" />
  <path
    fill="#fade7f"
    d="M 223.644531 488.875 L 120.621094 488.875 C 120.226562 488.875 119.847656 488.800781 119.480469 488.648438 C 119.117188 488.496094 118.796875 488.28125 118.515625 488.003906 C 118.238281 487.726562 118.023438 487.402344 117.871094 487.039062 C 117.71875 486.675781 117.644531 486.296875 117.644531 485.902344 C 117.644531 485.507812 117.71875 485.128906 117.871094 484.765625 C 118.023438 484.402344 118.238281 484.078125 118.515625 483.800781 C 118.796875 483.519531 119.117188 483.304688 119.480469 483.15625 C 119.847656 483.003906 120.226562 482.929688 120.621094 482.929688 L 223.644531 482.929688 C 224.039062 482.929688 224.417969 483.003906 224.785156 483.15625 C 225.148438 483.304688 225.46875 483.519531 225.75 483.800781 C 226.027344 484.078125 226.242188 484.398438 226.394531 484.765625 C 226.546875 485.128906 226.621094 485.507812 226.621094 485.902344 C 226.621094 486.296875 226.546875 486.675781 226.394531 487.039062 C 226.242188 487.402344 226.027344 487.726562 225.75 488.003906 C 225.46875 488.28125 225.148438 488.496094 224.785156 488.648438 C 224.417969 488.800781 224.039062 488.875 223.644531 488.875 Z M 223.644531 488.875 "
    fill-opacity="1"
    fill-rule="nonzero" />
  <path
    fill="#fade7f"
    d="M 629.574219 488.875 L 526.546875 488.875 C 526.152344 488.875 525.773438 488.800781 525.410156 488.648438 C 525.046875 488.496094 524.722656 488.28125 524.445312 488.003906 C 524.164062 487.726562 523.949219 487.402344 523.800781 487.039062 C 523.648438 486.675781 523.574219 486.296875 523.574219 485.902344 C 523.574219 485.507812 523.648438 485.128906 523.800781 484.765625 C 523.949219 484.402344 524.164062 484.078125 524.445312 483.800781 C 524.722656 483.519531 525.046875 483.304688 525.410156 483.15625 C 525.773438 483.003906 526.152344 482.929688 526.546875 482.929688 L 629.574219 482.929688 C 629.96875 482.929688 630.347656 483.003906 630.710938 483.15625 C 631.078125 483.304688 631.398438 483.519531 631.675781 483.800781 C 631.957031 484.078125 632.171875 484.398438 632.320312 484.765625 C 632.472656 485.128906 632.546875 485.507812 632.546875 485.902344 C 632.546875 486.296875 632.472656 486.675781 632.320312 487.039062 C 632.171875 487.402344 631.957031 487.726562 631.675781 488.003906 C 631.398438 488.28125 631.078125 488.496094 630.710938 488.648438 C 630.347656 488.800781 629.96875 488.875 629.574219 488.875 Z M 629.574219 488.875 "
    fill-opacity="1"
    fill-rule="nonzero" />
  <path
    fill="#fade7f"
    d="M 517.414062 437.121094 C 517.058594 437.125 516.714844 437.070312 516.378906 436.953125 C 516.042969 436.835938 515.738281 436.664062 515.464844 436.441406 C 515.191406 436.214844 514.964844 435.949219 514.789062 435.640625 C 514.609375 435.332031 514.488281 435.003906 514.429688 434.65625 C 514.367188 434.304688 514.371094 433.957031 514.433594 433.609375 C 514.5 433.257812 514.621094 432.933594 514.804688 432.628906 C 514.984375 432.320312 515.214844 432.058594 515.492188 431.835938 C 515.769531 431.613281 516.074219 431.445312 516.410156 431.332031 L 613.226562 396.121094 C 613.597656 395.984375 613.976562 395.925781 614.371094 395.945312 C 614.765625 395.960938 615.140625 396.054688 615.5 396.21875 C 615.855469 396.386719 616.167969 396.617188 616.433594 396.90625 C 616.699219 397.195312 616.902344 397.527344 617.035156 397.898438 C 617.171875 398.265625 617.230469 398.648438 617.214844 399.042969 C 617.195312 399.4375 617.105469 399.8125 616.9375 400.167969 C 616.773438 400.527344 616.542969 400.839844 616.253906 401.105469 C 615.964844 401.371094 615.632812 401.574219 615.261719 401.707031 L 518.433594 436.941406 C 518.105469 437.058594 517.765625 437.117188 517.414062 437.121094 Z M 517.414062 437.121094 "
    fill-opacity="1"
    fill-rule="nonzero" />
  <path
    fill="#fade7f"
    d="M 491.121094 391.601562 C 490.5 391.601562 489.929688 391.421875 489.417969 391.0625 C 488.90625 390.703125 488.546875 390.230469 488.332031 389.644531 C 488.117188 389.058594 488.09375 388.464844 488.253906 387.859375 C 488.414062 387.257812 488.734375 386.757812 489.210938 386.355469 L 568.132812 320.210938 C 568.433594 319.953125 568.773438 319.765625 569.152344 319.644531 C 569.527344 319.523438 569.914062 319.480469 570.308594 319.511719 C 570.703125 319.546875 571.078125 319.65625 571.429688 319.835938 C 571.78125 320.019531 572.085938 320.261719 572.339844 320.566406 C 572.59375 320.871094 572.78125 321.210938 572.898438 321.589844 C 573.015625 321.964844 573.058594 322.351562 573.023438 322.746094 C 572.984375 323.140625 572.875 323.511719 572.691406 323.863281 C 572.503906 324.214844 572.261719 324.515625 571.953125 324.765625 L 493.035156 390.910156 C 492.480469 391.371094 491.84375 391.601562 491.121094 391.601562 Z M 491.121094 391.601562 "
    fill-opacity="1"
    fill-rule="nonzero" />
  <path
    fill="#fade7f"
    d="M 450.820312 357.816406 C 450.558594 357.816406 450.300781 357.78125 450.050781 357.714844 C 449.796875 357.648438 449.558594 357.546875 449.332031 357.417969 C 449.105469 357.285156 448.902344 357.128906 448.714844 356.945312 C 448.53125 356.757812 448.375 356.554688 448.246094 356.328125 C 448.113281 356.101562 448.015625 355.863281 447.949219 355.613281 C 447.878906 355.359375 447.847656 355.105469 447.847656 354.84375 C 447.847656 354.582031 447.878906 354.324219 447.949219 354.074219 C 448.015625 353.820312 448.113281 353.582031 448.246094 353.355469 L 499.757812 264.175781 C 499.957031 263.835938 500.210938 263.542969 500.523438 263.304688 C 500.835938 263.0625 501.183594 262.894531 501.566406 262.789062 C 501.945312 262.6875 502.332031 262.664062 502.722656 262.714844 C 503.113281 262.765625 503.480469 262.890625 503.824219 263.085938 C 504.164062 263.285156 504.457031 263.539062 504.695312 263.851562 C 504.9375 264.164062 505.105469 264.511719 505.210938 264.894531 C 505.3125 265.273438 505.335938 265.660156 505.285156 266.050781 C 505.234375 266.441406 505.109375 266.808594 504.914062 267.148438 L 453.398438 356.328125 C 453.132812 356.789062 452.769531 357.152344 452.308594 357.417969 C 451.847656 357.683594 451.351562 357.816406 450.820312 357.816406 Z M 450.820312 357.816406 "
    fill-opacity="1"
    fill-rule="nonzero" />
  <path
    fill="#fade7f"
    d="M 401.402344 339.847656 C 401.226562 339.847656 401.054688 339.832031 400.882812 339.792969 C 400.496094 339.726562 400.132812 339.585938 399.800781 339.375 C 399.46875 339.164062 399.1875 338.898438 398.960938 338.574219 C 398.734375 338.25 398.578125 337.898438 398.492188 337.511719 C 398.40625 337.128906 398.398438 336.742188 398.464844 336.351562 L 416.351562 234.96875 C 416.421875 234.582031 416.5625 234.222656 416.773438 233.886719 C 416.984375 233.554688 417.253906 233.277344 417.578125 233.050781 C 417.898438 232.824219 418.253906 232.667969 418.640625 232.582031 C 419.023438 232.496094 419.410156 232.488281 419.800781 232.558594 C 420.1875 232.625 420.550781 232.765625 420.882812 232.980469 C 421.214844 233.191406 421.496094 233.457031 421.722656 233.78125 C 421.945312 234.105469 422.101562 234.457031 422.1875 234.84375 C 422.273438 235.226562 422.28125 235.613281 422.214844 236.003906 L 404.328125 337.386719 C 404.265625 337.730469 404.148438 338.054688 403.976562 338.355469 C 403.800781 338.660156 403.578125 338.921875 403.3125 339.148438 C 403.046875 339.371094 402.746094 339.542969 402.417969 339.664062 C 402.089844 339.785156 401.753906 339.84375 401.402344 339.847656 Z M 401.402344 339.847656 "
    fill-opacity="1"
    fill-rule="nonzero" />
  <path
    fill="#ffffff"
    d="M 323.292969 346.667969 C 322.671875 346.667969 322.101562 346.488281 321.589844 346.128906 C 321.082031 345.773438 320.71875 345.300781 320.503906 344.714844 L 285.265625 247.976562 C 285.132812 247.605469 285.074219 247.222656 285.089844 246.828125 C 285.109375 246.433594 285.199219 246.058594 285.367188 245.703125 C 285.535156 245.34375 285.761719 245.035156 286.054688 244.765625 C 286.34375 244.5 286.675781 244.300781 287.046875 244.167969 C 287.417969 244.03125 287.800781 243.972656 288.195312 243.992188 C 288.589844 244.007812 288.964844 244.101562 289.320312 244.265625 C 289.679688 244.433594 289.992188 244.664062 290.257812 244.953125 C 290.523438 245.246094 290.722656 245.574219 290.859375 245.945312 L 326.089844 342.679688 C 326.226562 343.046875 326.285156 343.429688 326.269531 343.824219 C 326.25 344.21875 326.160156 344.59375 325.992188 344.953125 C 325.824219 345.308594 325.597656 345.621094 325.304688 345.886719 C 325.015625 346.15625 324.683594 346.355469 324.3125 346.492188 C 323.984375 346.609375 323.644531 346.667969 323.292969 346.667969 Z M 323.292969 346.667969 "
    fill-opacity="1"
    fill-rule="nonzero" />
  <path
    fill="#ffffff"
    d="M 323.292969 346.667969 C 322.671875 346.667969 322.101562 346.488281 321.589844 346.128906 C 321.082031 345.773438 320.71875 345.300781 320.503906 344.714844 L 264.722656 191.6875 C 264.589844 191.316406 264.527344 190.933594 264.546875 190.539062 C 264.5625 190.144531 264.65625 189.769531 264.820312 189.414062 C 264.988281 189.054688 265.21875 188.742188 265.507812 188.476562 C 265.800781 188.210938 266.128906 188.007812 266.5 187.875 C 266.871094 187.738281 267.253906 187.679688 267.648438 187.699219 C 268.042969 187.714844 268.417969 187.804688 268.777344 187.972656 C 269.132812 188.140625 269.445312 188.367188 269.714844 188.660156 C 269.980469 188.949219 270.179688 189.28125 270.316406 189.652344 L 326.054688 342.679688 C 326.1875 343.046875 326.246094 343.429688 326.230469 343.824219 C 326.214844 344.21875 326.121094 344.59375 325.957031 344.953125 C 325.789062 345.308594 325.558594 345.621094 325.269531 345.886719 C 324.976562 346.15625 324.648438 346.355469 324.277344 346.492188 C 323.957031 346.605469 323.632812 346.664062 323.292969 346.667969 Z M 323.292969 346.667969 "
    fill-opacity="1"
    fill-rule="nonzero" />
  <path
    fill="#ffffff"
    d="M 277.746094 372.945312 C 277.300781 372.953125 276.875 372.859375 276.46875 372.671875 C 276.0625 372.484375 275.71875 372.21875 275.433594 371.878906 L 170.703125 247.136719 C 170.453125 246.832031 170.273438 246.496094 170.15625 246.121094 C 170.039062 245.746094 170 245.363281 170.035156 244.972656 C 170.070312 244.582031 170.179688 244.210938 170.363281 243.863281 C 170.542969 243.515625 170.785156 243.214844 171.085938 242.964844 C 171.386719 242.710938 171.726562 242.527344 172.097656 242.40625 C 172.472656 242.289062 172.855469 242.246094 173.246094 242.28125 C 173.640625 242.3125 174.007812 242.417969 174.359375 242.597656 C 174.707031 242.777344 175.007812 243.015625 175.265625 243.316406 L 280.023438 368.066406 C 280.394531 368.507812 280.617188 369.015625 280.691406 369.585938 C 280.765625 370.160156 280.683594 370.707031 280.4375 371.230469 C 280.195312 371.753906 279.832031 372.167969 279.34375 372.480469 C 278.855469 372.789062 278.324219 372.945312 277.746094 372.945312 Z M 277.746094 372.945312 "
    fill-opacity="1"
    fill-rule="nonzero" />
  <path
    fill="#ffffff"
    d="M 243.933594 413.210938 C 243.402344 413.210938 242.90625 413.078125 242.449219 412.8125 L 101.304688 331.390625 C 100.964844 331.191406 100.671875 330.9375 100.433594 330.625 C 100.191406 330.3125 100.023438 329.964844 99.917969 329.582031 C 99.816406 329.203125 99.792969 328.816406 99.84375 328.425781 C 99.894531 328.035156 100.019531 327.671875 100.21875 327.328125 C 100.414062 326.988281 100.667969 326.695312 100.980469 326.457031 C 101.292969 326.214844 101.640625 326.046875 102.023438 325.945312 C 102.402344 325.839844 102.789062 325.816406 103.179688 325.867188 C 103.570312 325.917969 103.9375 326.042969 104.28125 326.238281 L 245.421875 407.660156 C 245.707031 407.824219 245.957031 408.027344 246.175781 408.273438 C 246.390625 408.519531 246.5625 408.796875 246.691406 409.097656 C 246.816406 409.402344 246.890625 409.714844 246.910156 410.042969 C 246.933594 410.371094 246.902344 410.691406 246.816406 411.007812 C 246.730469 411.324219 246.597656 411.621094 246.414062 411.890625 C 246.234375 412.164062 246.011719 412.402344 245.75 412.601562 C 245.492188 412.800781 245.203125 412.953125 244.894531 413.054688 C 244.582031 413.160156 244.261719 413.214844 243.933594 413.210938 Z M 243.933594 413.210938 "
    fill-opacity="1"
    fill-rule="nonzero" />
  <g clip-path="url(#510438953b)">
    <path
      fill="#ffffff"
      d="M 225.949219 462.597656 C 225.777344 462.597656 225.601562 462.582031 225.429688 462.550781 L 64.949219 434.304688 C 64.5625 434.234375 64.203125 434.09375 63.871094 433.882812 C 63.539062 433.667969 63.257812 433.402344 63.03125 433.078125 C 62.808594 432.757812 62.652344 432.402344 62.566406 432.019531 C 62.480469 431.632812 62.472656 431.246094 62.542969 430.859375 C 62.609375 430.472656 62.75 430.113281 62.960938 429.78125 C 63.171875 429.449219 63.441406 429.167969 63.761719 428.941406 C 64.085938 428.714844 64.441406 428.558594 64.824219 428.472656 C 65.207031 428.390625 65.59375 428.378906 65.984375 428.449219 L 226.488281 456.6875 C 226.851562 456.753906 227.195312 456.878906 227.515625 457.074219 C 227.832031 457.265625 228.105469 457.507812 228.332031 457.804688 C 228.558594 458.097656 228.722656 458.425781 228.828125 458.78125 C 228.933594 459.140625 228.96875 459.503906 228.9375 459.875 C 228.90625 460.242188 228.804688 460.597656 228.640625 460.929688 C 228.476562 461.261719 228.257812 461.554688 227.984375 461.808594 C 227.710938 462.058594 227.398438 462.25 227.050781 462.386719 C 226.707031 462.523438 226.34375 462.589844 225.972656 462.589844 Z M 225.949219 462.597656 "
      fill-opacity="1"
      fill-rule="nonzero" />
  </g>
  <g clip-path="url(#a857cfab45)">
    <path
      fill="#ffffff"
      d="M 524.242188 462.597656 C 523.871094 462.597656 523.511719 462.527344 523.164062 462.394531 C 522.816406 462.257812 522.507812 462.066406 522.230469 461.816406 C 521.957031 461.5625 521.738281 461.269531 521.574219 460.9375 C 521.410156 460.605469 521.3125 460.25 521.277344 459.882812 C 521.246094 459.511719 521.28125 459.148438 521.386719 458.789062 C 521.492188 458.433594 521.65625 458.105469 521.882812 457.8125 C 522.109375 457.515625 522.382812 457.273438 522.703125 457.082031 C 523.019531 456.886719 523.363281 456.757812 523.730469 456.695312 L 684.230469 428.453125 C 684.609375 428.410156 684.980469 428.441406 685.347656 428.539062 C 685.714844 428.640625 686.050781 428.800781 686.351562 429.03125 C 686.65625 429.257812 686.90625 429.53125 687.105469 429.855469 C 687.304688 430.179688 687.433594 430.527344 687.5 430.902344 C 687.566406 431.277344 687.558594 431.648438 687.480469 432.019531 C 687.402344 432.390625 687.257812 432.734375 687.046875 433.050781 C 686.839844 433.367188 686.578125 433.632812 686.265625 433.851562 C 685.953125 434.066406 685.613281 434.21875 685.242188 434.304688 L 524.742188 462.542969 C 524.574219 462.574219 524.410156 462.59375 524.242188 462.597656 Z M 524.242188 462.597656 "
      fill-opacity="1"
      fill-rule="nonzero" />
  </g>
  <path
    fill="#ffffff"
    d="M 506.257812 413.210938 C 505.929688 413.214844 505.609375 413.160156 505.300781 413.054688 C 504.988281 412.953125 504.703125 412.800781 504.441406 412.601562 C 504.183594 412.402344 503.960938 412.164062 503.777344 411.890625 C 503.59375 411.621094 503.460938 411.324219 503.378906 411.007812 C 503.292969 410.691406 503.261719 410.371094 503.28125 410.042969 C 503.304688 409.714844 503.378906 409.402344 503.503906 409.097656 C 503.628906 408.796875 503.800781 408.519531 504.019531 408.273438 C 504.234375 408.027344 504.484375 407.824219 504.769531 407.660156 L 645.914062 326.238281 C 646.253906 326.042969 646.621094 325.917969 647.011719 325.867188 C 647.40625 325.816406 647.789062 325.839844 648.171875 325.941406 C 648.554688 326.042969 648.898438 326.214844 649.210938 326.457031 C 649.527344 326.695312 649.78125 326.984375 649.976562 327.328125 C 650.175781 327.667969 650.300781 328.035156 650.351562 328.425781 C 650.402344 328.816406 650.378906 329.203125 650.273438 329.582031 C 650.171875 329.964844 650 330.3125 649.761719 330.625 C 649.519531 330.9375 649.230469 331.191406 648.890625 331.390625 L 507.746094 412.8125 C 507.285156 413.078125 506.789062 413.210938 506.257812 413.210938 Z M 506.257812 413.210938 "
    fill-opacity="1"
    fill-rule="nonzero" />
  <path
    fill="#ffffff"
    d="M 472.445312 372.945312 C 471.871094 372.945312 471.335938 372.789062 470.851562 372.480469 C 470.363281 372.167969 469.996094 371.753906 469.753906 371.230469 C 469.511719 370.707031 469.425781 370.160156 469.5 369.585938 C 469.578125 369.015625 469.800781 368.507812 470.171875 368.066406 L 574.929688 243.308594 C 575.183594 243.007812 575.484375 242.769531 575.835938 242.589844 C 576.183594 242.410156 576.554688 242.304688 576.945312 242.273438 C 577.335938 242.238281 577.71875 242.28125 578.09375 242.402344 C 578.46875 242.519531 578.804688 242.703125 579.105469 242.957031 C 579.40625 243.207031 579.648438 243.507812 579.832031 243.855469 C 580.011719 244.203125 580.121094 244.574219 580.15625 244.964844 C 580.195312 245.355469 580.152344 245.738281 580.039062 246.113281 C 579.921875 246.488281 579.738281 246.824219 579.488281 247.128906 L 474.761719 371.878906 C 474.472656 372.21875 474.128906 372.484375 473.722656 372.671875 C 473.320312 372.859375 472.894531 372.953125 472.445312 372.945312 Z M 472.445312 372.945312 "
    fill-opacity="1"
    fill-rule="nonzero" />
  <path
    fill="#ffffff"
    d="M 426.898438 346.667969 C 426.550781 346.667969 426.210938 346.609375 425.878906 346.492188 C 425.507812 346.355469 425.179688 346.15625 424.886719 345.886719 C 424.597656 345.621094 424.367188 345.308594 424.199219 344.953125 C 424.035156 344.59375 423.941406 344.21875 423.925781 343.824219 C 423.910156 343.429688 423.96875 343.046875 424.101562 342.679688 L 479.839844 189.652344 C 479.976562 189.28125 480.175781 188.949219 480.441406 188.660156 C 480.710938 188.367188 481.023438 188.140625 481.378906 187.972656 C 481.738281 187.804688 482.113281 187.714844 482.507812 187.699219 C 482.902344 187.679688 483.285156 187.738281 483.65625 187.875 C 484.027344 188.007812 484.355469 188.210938 484.648438 188.476562 C 484.9375 188.742188 485.167969 189.054688 485.335938 189.414062 C 485.5 189.769531 485.59375 190.144531 485.609375 190.539062 C 485.628906 190.933594 485.566406 191.316406 485.433594 191.6875 L 429.652344 344.714844 C 429.441406 345.292969 429.082031 345.761719 428.578125 346.121094 C 428.078125 346.476562 427.515625 346.660156 426.898438 346.667969 Z M 426.898438 346.667969 "
    fill-opacity="1"
    fill-rule="nonzero" />
  <path
    fill="#06b178"
    d="M 545.253906 520.019531 L 204.941406 520.019531 C 204.546875 520.019531 204.164062 519.945312 203.800781 519.796875 C 203.4375 519.644531 203.113281 519.429688 202.835938 519.152344 C 202.558594 518.871094 202.34375 518.550781 202.191406 518.1875 C 202.039062 517.820312 201.964844 517.441406 201.964844 517.046875 C 201.964844 516.65625 202.039062 516.273438 202.191406 515.910156 C 202.34375 515.546875 202.558594 515.226562 202.835938 514.945312 C 203.113281 514.667969 203.4375 514.453125 203.800781 514.300781 C 204.164062 514.152344 204.546875 514.074219 204.941406 514.074219 L 545.253906 514.074219 C 545.648438 514.074219 546.027344 514.152344 546.390625 514.300781 C 546.757812 514.453125 547.078125 514.667969 547.355469 514.945312 C 547.636719 515.226562 547.851562 515.546875 548.003906 515.910156 C 548.152344 516.273438 548.230469 516.65625 548.230469 517.046875 C 548.230469 517.441406 548.152344 517.820312 548.003906 518.1875 C 547.851562 518.550781 547.636719 518.871094 547.355469 519.152344 C 547.078125 519.429688 546.757812 519.644531 546.390625 519.796875 C 546.027344 519.945312 545.648438 520.019531 545.253906 520.019531 Z M 545.253906 520.019531 "
    fill-opacity="1"
    fill-rule="nonzero" />
  <path
    fill="#069d40"
    d="M 505.253906 550.484375 L 244.9375 550.484375 C 244.542969 550.484375 244.164062 550.410156 243.800781 550.257812 C 243.4375 550.105469 243.113281 549.890625 242.835938 549.613281 C 242.554688 549.335938 242.339844 549.011719 242.191406 548.648438 C 242.039062 548.285156 241.964844 547.90625 241.964844 547.511719 C 241.964844 547.117188 242.039062 546.738281 242.191406 546.375 C 242.339844 546.007812 242.554688 545.6875 242.835938 545.410156 C 243.113281 545.128906 243.4375 544.914062 243.800781 544.765625 C 244.164062 544.613281 244.542969 544.539062 244.9375 544.539062 L 505.253906 544.539062 C 505.648438 544.539062 506.027344 544.613281 506.394531 544.765625 C 506.757812 544.914062 507.078125 545.128906 507.359375 545.410156 C 507.636719 545.6875 507.851562 546.007812 508.003906 546.375 C 508.152344 546.738281 508.230469 547.117188 508.230469 547.511719 C 508.230469 547.90625 508.152344 548.285156 508.003906 548.648438 C 507.851562 549.011719 507.636719 549.335938 507.359375 549.613281 C 507.078125 549.890625 506.757812 550.105469 506.394531 550.257812 C 506.027344 550.410156 505.648438 550.484375 505.253906 550.484375 Z M 505.253906 550.484375 "
    fill-opacity="1"
    fill-rule="nonzero" />
  <path
    fill="#058525"
    d="M 470.378906 580.945312 L 279.8125 580.945312 C 279.417969 580.945312 279.039062 580.871094 278.675781 580.71875 C 278.3125 580.570312 277.988281 580.355469 277.710938 580.074219 C 277.429688 579.796875 277.214844 579.476562 277.066406 579.113281 C 276.914062 578.746094 276.839844 578.367188 276.839844 577.972656 C 276.839844 577.578125 276.914062 577.199219 277.066406 576.835938 C 277.214844 576.472656 277.429688 576.152344 277.710938 575.871094 C 277.988281 575.59375 278.3125 575.378906 278.675781 575.226562 C 279.039062 575.078125 279.417969 575 279.8125 575 L 470.378906 575 C 470.773438 575 471.152344 575.078125 471.519531 575.226562 C 471.882812 575.378906 472.203125 575.59375 472.484375 575.871094 C 472.761719 576.152344 472.976562 576.472656 473.128906 576.835938 C 473.277344 577.199219 473.355469 577.578125 473.355469 577.972656 C 473.355469 578.367188 473.277344 578.746094 473.128906 579.113281 C 472.976562 579.476562 472.761719 579.796875 472.484375 580.074219 C 472.203125 580.355469 471.882812 580.570312 471.519531 580.71875 C 471.152344 580.871094 470.773438 580.945312 470.378906 580.945312 Z M 470.378906 580.945312 "
    fill-opacity="1"
    fill-rule="nonzero" />
</svg>
